<mxfile host="app.diagrams.net" agent="Mozilla/5.0 (Windows NT 10.0; Win64; x64) AppleWebKit/537.36 (KHTML, like Gecko) Chrome/133.0.0.0 Safari/537.36" version="26.0.16">
  <diagram name="페이지-1" id="9A9ZXF2EYLERF3gJ_ILT">
    <mxGraphModel dx="1299" dy="821" grid="1" gridSize="10" guides="1" tooltips="1" connect="1" arrows="1" fold="1" page="1" pageScale="1" pageWidth="827" pageHeight="1169" math="0" shadow="0">
      <root>
        <mxCell id="0" />
        <mxCell id="1" parent="0" />
        <mxCell id="ZohFUqSMDbtdAadBT-RO-1" value="일반사원" style="shape=umlActor;verticalLabelPosition=bottom;verticalAlign=top;html=1;" parent="1" vertex="1">
          <mxGeometry x="-524" y="345" width="30" height="60" as="geometry" />
        </mxCell>
        <mxCell id="ZohFUqSMDbtdAadBT-RO-2" value="사이드바" style="ellipse;whiteSpace=wrap;html=1;" parent="1" vertex="1">
          <mxGeometry x="-251" y="335" width="120" height="80" as="geometry" />
        </mxCell>
        <mxCell id="ZohFUqSMDbtdAadBT-RO-5" value="결재 시스템" style="ellipse;whiteSpace=wrap;html=1;" parent="1" vertex="1">
          <mxGeometry x="90" y="238.25" width="120" height="80" as="geometry" />
        </mxCell>
        <mxCell id="ZohFUqSMDbtdAadBT-RO-8" value="" style="endArrow=classic;html=1;rounded=0;entryX=0;entryY=0.5;entryDx=0;entryDy=0;exitX=1;exitY=0.5;exitDx=0;exitDy=0;" parent="1" source="ZohFUqSMDbtdAadBT-RO-2" target="ZohFUqSMDbtdAadBT-RO-5" edge="1">
          <mxGeometry width="50" height="50" relative="1" as="geometry">
            <mxPoint x="125" y="217" as="sourcePoint" />
            <mxPoint x="208" y="572" as="targetPoint" />
          </mxGeometry>
        </mxCell>
        <mxCell id="ZohFUqSMDbtdAadBT-RO-9" value="" style="endArrow=classic;html=1;rounded=0;" parent="1" edge="1">
          <mxGeometry width="50" height="50" relative="1" as="geometry">
            <mxPoint x="-442" y="379" as="sourcePoint" />
            <mxPoint x="-269" y="379" as="targetPoint" />
          </mxGeometry>
        </mxCell>
        <mxCell id="ZohFUqSMDbtdAadBT-RO-14" value="게시판" style="ellipse;whiteSpace=wrap;html=1;" parent="1" vertex="1">
          <mxGeometry x="90" y="336.75" width="120" height="80" as="geometry" />
        </mxCell>
        <mxCell id="ZohFUqSMDbtdAadBT-RO-15" value="일정관리" style="ellipse;whiteSpace=wrap;html=1;" parent="1" vertex="1">
          <mxGeometry x="90" y="431.75" width="120" height="80" as="geometry" />
        </mxCell>
        <mxCell id="ZohFUqSMDbtdAadBT-RO-16" value="" style="endArrow=classic;html=1;rounded=0;entryX=0;entryY=0.5;entryDx=0;entryDy=0;exitX=1;exitY=0.5;exitDx=0;exitDy=0;" parent="1" source="ZohFUqSMDbtdAadBT-RO-2" target="ZohFUqSMDbtdAadBT-RO-14" edge="1">
          <mxGeometry width="50" height="50" relative="1" as="geometry">
            <mxPoint x="-240" y="330" as="sourcePoint" />
            <mxPoint x="103" y="676" as="targetPoint" />
          </mxGeometry>
        </mxCell>
        <mxCell id="ZohFUqSMDbtdAadBT-RO-17" value="" style="endArrow=classic;html=1;rounded=0;entryX=0;entryY=0.5;entryDx=0;entryDy=0;exitX=1;exitY=0.5;exitDx=0;exitDy=0;" parent="1" source="ZohFUqSMDbtdAadBT-RO-2" target="ZohFUqSMDbtdAadBT-RO-15" edge="1">
          <mxGeometry width="50" height="50" relative="1" as="geometry">
            <mxPoint x="-240" y="330" as="sourcePoint" />
            <mxPoint x="103" y="776" as="targetPoint" />
          </mxGeometry>
        </mxCell>
      </root>
    </mxGraphModel>
  </diagram>
</mxfile>
